# Blender 3.4.1
# www.blender.org
mtllib cboxuv.mtl
o area_light
v -0.884011 5.318498 -3.567967
v 0.415989 5.319335 -2.517967
v -0.884011 5.319335 -2.517967
v 0.415989 5.318498 -3.567967
vn -0.0000 -1.0000 0.0008
vt 0.786614 0.285324
vt 0.848232 0.209035
vt 0.848232 0.285324
vt 0.786614 0.209035
s 1
usemtl Light
# f 1/1/1 2/2/1 3/3/1
# f 1/1/1 4/4/1 2/2/1
o back_wall
v -2.950011 -0.162685 -5.835598
v 2.545989 5.325314 -5.839966
v -3.014011 5.325314 -5.839966
v 2.545989 -0.162685 -5.835598
vn -0.0000 0.0008 1.0000
vt 0.994365 0.348821
vt 0.672308 0.671347
vt 0.672308 0.345065
vt 0.994365 0.671347
s 1
usemtl Khaki
f 5/5/2 6/6/2 7/7/2
f 5/5/2 8/8/2 6/6/2
o ceiling
v -3.014011 5.325314 -5.839967
v 2.545989 5.329765 -0.247968
v -3.014011 5.329765 -0.247968
v 2.545989 5.325314 -5.839967
vn -0.0000 -1.0000 0.0008
vt 0.331917 0.333795
vt 0.005635 0.005635
vt 0.331917 0.005635
vt 0.005635 0.333795
s 1
usemtl Khaki
f 9/9/3 10/10/3 11/11/3
f 9/9/3 12/12/3 10/10/3
o floor
v 2.545989 -0.158233 -0.243599
v -2.950011 -0.162685 -5.835598
v -2.982011 -0.158233 -0.243599
v 2.545989 -0.162685 -5.835598
vn -0.0000 1.0000 -0.0008
vt 0.667592 0.005635
vt 0.345065 0.333795
vt 0.343187 0.005635
vt 0.667592 0.333795
s 1
usemtl Khaki
f 13/13/4 14/14/4 15/15/4
f 13/13/4 16/16/4 14/14/4
o left_wall
v -2.982011 -0.158233 -0.243599
v -3.014011 5.325314 -5.839967
v -3.014011 5.329765 -0.247968
v -2.950011 -0.162685 -5.835598
vn 1.0000 0.0087 0.0028
vn 1.0000 0.0088 0.0029
vn 1.0000 0.0058 -0.0000
vn 0.9999 0.0117 0.0057
vt 0.005651 0.673228
vt 0.327711 0.345070
vt 0.327711 0.673228
vt 0.005635 0.345065
s 1
usemtl BloodyRed
f 17/17/5 18/18/6 19/19/7
f 17/17/5 20/20/8 18/18/6
o right_wall
v 2.545989 -0.158233 -0.243599
v 2.545989 5.325314 -5.839967
v 2.545989 -0.162685 -5.835598
v 2.545989 5.329765 -0.247968
vn -1.0000 -0.0000 -0.0000
vt 0.338981 0.345065
vt 0.661038 0.673225
vt 0.338981 0.673225
vt 0.661038 0.345065
s 1
usemtl DarkGreen
f 21/21/9 22/22/9 23/23/9
f 21/21/9 24/24/9 22/22/9
o short_box
v 1.245989 1.491249 -0.894913
v 0.145989 1.489601 -2.964912
v -0.354011 1.490859 -1.384912
v -0.354011 1.490859 -1.384912
v 0.145989 -0.160399 -2.963598
v -0.354011 -0.159141 -1.383599
v 1.245989 1.491249 -0.894913
v -0.354011 -0.159141 -1.383599
v 1.245989 -0.158750 -0.893599
v 1.725989 1.489975 -2.494912
v 1.245989 -0.158750 -0.893599
v 1.725989 -0.160024 -2.493598
v 0.145989 1.489601 -2.964912
v 1.725989 -0.160024 -2.493598
v 0.145989 -0.160399 -2.963598
v 1.725989 1.489975 -2.494912
v 0.145989 1.489601 -2.964912
v -0.354011 1.490859 -1.384912
v 1.245989 1.491249 -0.894913
v 1.725989 1.489975 -2.494912
vn -0.0000 1.0000 -0.0008
vn -0.9534 -0.0002 -0.3017
vn -0.2928 0.0008 0.9562
vn 0.9578 0.0002 0.2873
vn 0.2851 -0.0008 -0.9585
vt 0.435320 0.780999
vt 0.339202 0.685931
vt 0.434767 0.684495
vt 0.648178 0.684495
vt 0.553018 0.780071
vt 0.553018 0.684495
vt 0.541749 0.684495
vt 0.446589 0.781001
vt 0.446589 0.684495
vt 0.316132 0.684497
vt 0.220972 0.780836
vt 0.220972 0.684497
vt 0.780446 0.682617
vt 0.875514 0.777776
vt 0.780446 0.777776
vt 0.338981 0.780999
vt 0.648178 0.780071
vt 0.541749 0.781001
vt 0.316132 0.780836
vt 0.875514 0.682617
s 1
usemtl Khaki
f 25/25/10 26/26/10 27/27/10
f 28/28/11 29/29/11 30/30/11
f 31/31/12 32/32/12 33/33/12
f 34/34/13 35/35/13 36/36/13
f 37/37/14 38/38/14 39/39/14
f 25/25/10 40/40/10 26/26/10
f 28/28/11 41/41/11 29/29/11
f 31/31/12 42/42/12 32/32/12
f 34/34/13 43/43/13 35/35/13
f 37/37/14 44/44/14 38/38/14
o tall_box
v -0.104011 3.139410 -3.206226
v -2.174011 3.138534 -4.306225
v -1.684011 3.139800 -2.716226
v -1.684011 -0.160200 -2.713598
v -2.174011 3.138534 -4.306225
v -2.174011 -0.161465 -4.303598
v -2.174011 3.138534 -4.306225
v -0.594011 -0.161863 -4.803598
v -2.174011 -0.161465 -4.303598
v -0.594011 3.138136 -4.806225
v -0.104011 -0.160589 -3.203598
v -0.594011 -0.161863 -4.803598
v -0.104011 3.139410 -3.206226
v -1.684011 -0.160200 -2.713598
v -0.104011 -0.160589 -3.203598
v -0.594011 3.138136 -4.806225
v -1.684011 3.139800 -2.716226
v -0.594011 3.138136 -4.806225
v -0.104011 3.139410 -3.206226
v -1.684011 3.139800 -2.716226
vn -0.0000 1.0000 -0.0008
vn -0.9556 0.0002 0.2945
vn -0.3017 -0.0008 -0.9534
vn 0.9562 -0.0002 -0.2928
vn 0.2962 0.0008 0.9551
vt 0.679032 0.306460
vt 0.775345 0.209763
vt 0.775345 0.306632
vt 0.672308 0.874748
vt 0.769176 0.682617
vt 0.769176 0.874748
vt 0.102121 0.876629
vt 0.005635 0.684497
vt 0.102121 0.684497
vt 0.678861 0.005635
vt 0.776286 0.197766
vt 0.678861 0.197766
vt 0.209703 0.876629
vt 0.113391 0.684497
vt 0.209703 0.684497
vt 0.678861 0.209035
vt 0.672308 0.682617
vt 0.005635 0.876629
vt 0.776286 0.005635
vt 0.113391 0.876629
s 1
usemtl Khaki
f 45/45/15 46/46/15 47/47/15
f 48/48/16 49/49/16 50/50/16
f 51/51/17 52/52/17 53/53/17
f 54/54/18 55/55/18 56/56/18
f 57/57/19 58/58/19 59/59/19
f 45/45/15 60/60/15 46/46/15
f 48/48/16 61/61/16 49/49/16
f 51/51/17 62/62/17 52/52/17
f 54/54/18 63/63/18 55/55/18
f 57/57/19 64/64/19 58/58/19
